<?xml version="1.0" encoding="iso-8859-1"?>
<!-- Uploaded to: SVG Repo, www.svgrepo.com, Generator: SVG Repo Mixer Tools -->
<svg version="1.1" id="Layer_1" xmlns="http://www.w3.org/2000/svg" xmlns:xlink="http://www.w3.org/1999/xlink" 
	 viewBox="0 0 511.999 511.999" xml:space="preserve">
<rect x="363.138" y="89.224" transform="matrix(-0.7071 0.7071 -0.7071 -0.7071 822.3786 5.4206)" style="fill:#D4E4AC;" width="93.857" height="167.612"/>
<rect x="136.807" y="322.024" transform="matrix(-0.7071 -0.7071 0.7071 -0.7071 96.5813 751.0997)" style="fill:#E2804F;" width="134.084" height="67.047"/>
<polygon style="fill:#F2BF7E;" points="189.629,161.185 102.29,246.518 128.727,274.963 128.727,293.925 149.697,312.888 
	179.145,284.443 274.46,379.258 246.267,407.703 274.837,436.147 369.714,341.332 "/>
<path style="fill:#E2804F;" d="M383.272,279.703V260.74l24.067-23.704l-89.892-88.664l-33.003,34.595h-28.444l-71.111,69.701
	c13.091,13.091,34.317,12.386,47.407-0.705l23.704-24.057l89.71,89.897L383.272,279.703z"/>
<rect x="52.621" y="104.43" transform="matrix(-0.7071 -0.7071 0.7071 -0.7071 39.2108 386.0058)" style="fill:#D4E4AC;" width="93.857" height="160.904"/>
<path d="M75.851,284.444L0,208.592L123.259,85.334l75.851,75.851L75.851,284.444z M18.964,208.592l56.889,56.889l104.296-104.297
	l-56.889-56.888L18.964,208.592z"/>
<polygon points="341.333,369.778 246.518,274.962 255.999,265.481 341.333,350.814 355.555,336.592 260.741,241.777 
	270.222,232.297 374.517,336.592 "/>
<polygon points="317.629,393.48 222.814,298.666 232.295,289.185 317.629,374.518 327.11,365.037 336.591,374.518 "/>
<polygon points="293.926,417.185 274.963,398.221 284.444,388.74 293.926,398.221 303.406,388.74 312.887,398.221 "/>
<polygon points="135.696,308.684 121.424,297.166 121.424,277.65 105.436,260.643 115.317,251.355 134.986,272.275 134.986,290.683 
	144.212,298.129 "/>
<polygon points="270.222,440.888 251.259,421.925 260.74,412.444 270.222,421.925 279.703,412.444 289.184,421.925 "/>
<rect x="40.706" y="201.893" transform="matrix(-0.7071 -0.7071 0.7071 -0.7071 -66.5657 389.6216)" style="fill:#FFFFFF;" width="13.409" height="13.408"/>
<path d="M436.148,274.963l-128.001-128l75.852-75.852l128,128L436.148,274.963z M327.11,146.963L436.148,256l56.889-56.889
	L383.999,90.074L327.11,146.963z"/>
<g>
	
		<rect x="457.885" y="192.41" transform="matrix(-0.7071 -0.7071 0.7071 -0.7071 652.3077 668.4238)" style="fill:#FFFFFF;" width="13.407" height="13.409"/>
	<path style="fill:#FFFFFF;" d="M222.815,213.332l14.222,14.222l-1.87,1.87c-10.678,10.678-25.988,15.314-40.796,12.352l0,0
		L222.815,213.332z"/>
</g>
<path d="M208.593,267.763c-10.302,0-20.603-3.921-28.444-11.763l-4.74-4.74l77.816-77.816h28.444l21.741-21.74l9.481,9.481
	l-25.667,25.667h-28.444l-63.813,63.813c4.084,2.417,8.758,3.709,13.628,3.709c7.164,0,13.898-2.791,18.963-7.854l42.667-42.667
	l23.704,23.703c5.065,5.065,11.801,7.855,18.964,7.855c7.163,0,13.898-2.791,18.964-7.854l9.481,9.481
	c-7.597,7.598-17.699,11.782-28.444,11.782c-10.745,0-20.847-4.184-28.444-11.782l-14.223-14.221l-33.185,33.185
	C229.194,263.842,218.893,267.763,208.593,267.763z"/>
<rect x="194.202" y="175.812" transform="matrix(-0.7071 -0.7071 0.7071 -0.7071 231.0752 460.7459)" width="33.518" height="13.408"/>
<polygon points="360.256,312.934 350.649,303.362 377.013,276.901 377.013,257.925 393.282,241.714 402.854,251.321 
	390.575,263.556 390.575,282.505 "/>
<g>
	
		<rect x="172.461" y="301.854" transform="matrix(-0.7071 -0.7071 0.7071 -0.7071 88.6525 667.2458)" style="fill:#FFFFFF;" width="20.113" height="26.818"/>
	
		<rect x="196.163" y="325.553" transform="matrix(-0.7071 -0.7071 0.7071 -0.7071 112.3562 724.4631)" style="fill:#FFFFFF;" width="20.113" height="26.818"/>
	
		<rect x="219.865" y="349.259" transform="matrix(-0.7071 -0.7071 0.7071 -0.7071 136.0554 781.691)" style="fill:#FFFFFF;" width="20.113" height="26.818"/>
	
		<rect x="243.577" y="372.951" transform="matrix(-0.7071 -0.7071 0.7071 -0.7071 159.7821 838.9033)" style="fill:#FFFFFF;" width="20.113" height="26.818"/>
</g>
<path d="M180.148,274.963l-56.889,56.889l104.24,104.24l56.889-56.889L180.148,274.963z M142.222,331.851l37.925-37.925
	l14.222,14.222l-37.925,37.925L142.222,331.851z M203.851,317.629l14.194,14.193l-37.925,37.925l-14.194-14.193L203.851,317.629z
	 M189.63,379.259l37.925-37.925l14.166,14.166l-37.925,37.925L189.63,379.259z M213.305,402.934l37.925-37.925l14.194,14.194
	l-37.925,37.925L213.305,402.934z"/>
</svg>