<?xml version="1.0" encoding="iso-8859-1"?>
<!-- Uploaded to: SVG Repo, www.svgrepo.com, Generator: SVG Repo Mixer Tools -->
<svg version="1.1" id="Layer_1" xmlns="http://www.w3.org/2000/svg" xmlns:xlink="http://www.w3.org/1999/xlink" 
	 viewBox="0 0 512 512" xml:space="preserve">
<rect x="231.745" y="428.484" style="fill:#E2804F;" width="56.082" height="72.108"/>
<path style="fill:#F2BF7E;" d="M335.895,167.58c0,40.668-36.168,76.633-80.416,76.633s-79.819-35.965-79.819-76.633L335.895,167.58
	L335.895,167.58z"/>
<path style="fill:#E2804F;" d="M295.836,40.362c-22.123,0-40.059-17.935-40.059-40.059c0,22.123-17.935,40.059-40.059,40.059
	h-40.532V167.58h161.629V40.363C336.815,40.363,295.836,40.363,295.836,40.362z"/>
<rect x="223.726" y="132.045" style="fill:#FFFFFF;" width="64.099" height="64.099"/>
<path style="fill:#D4E4AC;" d="M351.919,120.656h-15.105v43.441c0,44.248-36.567,80.118-80.815,80.118
	c-44.248,0-80.815-35.871-80.815-80.119v-43.441h-15.55H7.299v311.788h497.401V120.655H351.919V120.656z"/>
<rect x="7.412" y="392.299" style="fill:#F2BF7E;" width="496.734" height="36.188"/>
<g>
	<rect x="311.861" y="268.252" style="fill:#FFFFFF;" width="160.232" height="64.099"/>
	<path style="fill:#FFFFFF;" d="M183.671,191.564H39.625v144.945h215.853v-92.296C255.479,244.214,195.465,247.874,183.671,191.564z
		"/>
</g>
<rect x="160.587" y="496.055" width="199.169" height="15.642"/>
<rect x="32.326" y="384.479" width="14.599" height="15.642"/>
<rect x="62.566" y="384.479" width="17.727" height="15.642"/>
<rect x="95.935" y="384.479" width="15.642" height="15.642"/>
<polygon points="351.413,112.314 351.413,127.955 496.358,127.955 496.358,384.477 127.218,384.477 127.218,400.118 
	496.358,400.118 496.358,425.145 15.642,425.145 15.642,127.955 160.587,127.955 160.587,112.314 0,112.314 0,440.786 
	224.196,440.786 224.196,488.754 239.837,488.754 239.837,440.786 279.462,440.786 279.462,488.754 295.104,488.754 
	295.104,440.786 512,440.786 512,112.314 "/>
<path d="M295.837,204.155h-80.119v-80.118h80.119V204.155z M231.742,188.131h48.071v-48.071h-48.071V188.131z"/>
<path d="M287.805,115.442h-15.642V83.978c0-8.941-7.25-16.215-16.163-16.215c-8.913,0-16.163,7.273-16.163,16.215v31.464h-15.642
	V83.978c0-17.565,14.268-31.857,31.804-31.857c17.536,0,31.805,14.29,31.805,31.857V115.442z"/>
<path d="M295.836,33.063c-17.776,0-32.238-14.599-32.238-32.326h-15.642c0,17.727-14.461,32.326-32.237,32.326h-47.833v131.033
	c0,48.489,39.527,87.939,88.114,87.939s88.114-39.449,88.114-87.939V33.063H295.836z M256,236.393
	c-35.923,0-65.81-26.214-71.487-60.47h22.998v-15.642h-23.984V48.705h32.191c16.737,0,31.496-8.633,40.058-21.68
	c8.562,13.047,23.322,21.68,40.059,21.68h32.637v111.576h-25.026v15.642h24.041C321.81,210.18,291.923,236.393,256,236.393z"/>
<rect x="248.179" y="160.283" width="15.642" height="15.642"/>
<polygon points="262.778,343.809 31.283,343.809 31.283,184.265 160.587,184.265 160.587,199.906 46.925,199.906 46.925,328.167 
	247.136,328.167 247.136,264.558 262.778,264.558 "/>
<rect x="71.503" y="220.18" style="fill:#E2804F;" width="64.099" height="80.116"/>
<path d="M143.613,308.308H63.494v-96.141h80.119L143.613,308.308L143.613,308.308z M79.519,292.284h48.071V228.19H79.519V292.284z"
	/>
<rect x="160.587" y="214.507" width="14.599" height="15.642"/>
<rect x="160.587" y="240.576" width="31.283" height="15.642"/>
<rect x="160.587" y="266.646" width="63.609" height="15.642"/>
<rect x="160.587" y="292.715" width="63.609" height="15.642"/>
<path d="M480.108,340.355H303.849v-80.118h176.259V340.355z M319.873,324.332h144.211v-48.071H319.873V324.332z"/>
<rect x="336.815" y="293.758" width="14.599" height="15.642"/>
<rect x="367.055" y="293.758" width="16.684" height="15.642"/>
<rect x="400.424" y="293.758" width="15.642" height="15.642"/>
<rect x="431.707" y="293.758" width="15.642" height="15.642"/>
</svg>