<?xml version="1.0" encoding="iso-8859-1"?>
<!-- Uploaded to: SVG Repo, www.svgrepo.com, Generator: SVG Repo Mixer Tools -->
<svg version="1.1" id="Layer_1" xmlns="http://www.w3.org/2000/svg" xmlns:xlink="http://www.w3.org/1999/xlink" 
	 viewBox="0 0 511.998 511.998" xml:space="preserve">
<path style="fill:#E2804F;" d="M468.772,278.355c0-11.563-1.697-22.708-4.64-33.333l37.283-21.526l-31.189-54.019l-38.321,21.499
	c-15.628-15.911-35.055-27.54-58.867-33.284v-43.528h-62.117v43.528c-23.812,5.744-41.199,17.372-56.827,33.284l-36.758-21.499
	l-30.949,54.019l36.123,21.526c-2.944,10.625-5.8,19.917-5.8,31.479v17.804h23.812v34.91c8.282,2.901,16.76,7.245,23.235,12.783
	l7.584-4.07c-13.377-16.183-21.151-36.938-21.151-59.573c0-51.674,42.023-93.564,93.698-93.564s93.631,41.89,93.631,93.564
	c0,51.673-41.857,93.564-93.53,93.564c-10.229,0-20.03-1.699-29.243-4.732l-26.532,15.323c0.767,4.156,1.225,8.422,1.225,12.8
	c0,4.378-0.451,8.644-1.219,12.8l30.526,17.623l-5.651,9.917l15.333,6.7h44.613v-43.333c23.812-5.744,43.239-17.372,58.867-33.284
	l37.779,21.499l31.459-54.019l-37.147-21.526C466.94,301.063,468.772,289.918,468.772,278.355z"/>
<path style="fill:#D4E4AC;" d="M344.02,184.791c-51.674,0-93.564,41.89-93.564,93.564c0,51.673,41.89,93.564,93.564,93.564
	s93.564-41.89,93.564-93.564S395.694,184.791,344.02,184.791z M344.02,348.528c-5.357,0-10.573-0.6-15.586-1.737l-46.788-36.254
	c-4.984-9.64-7.799-20.583-7.799-32.183c0-38.756,31.417-70.173,70.173-70.173s70.173,31.417,70.173,70.173
	C414.193,317.11,382.776,348.528,344.02,348.528z"/>
<g>
	<circle style="fill:#FFFFFF;" cx="344.017" cy="278.358" r="70.173"/>
	<circle style="fill:#FFFFFF;" cx="141.296" cy="145.81" r="46.785"/>
</g>
<path style="fill:#F2BF7E;" d="M141.298,75.633c-38.756,0-70.173,31.417-70.173,70.173c0,38.755,31.417,70.173,70.173,70.173
	s70.173-31.418,70.173-70.173S180.054,75.633,141.298,75.633z M141.298,192.588c-25.837,0-46.782-20.945-46.782-46.782
	s20.945-46.782,46.782-46.782s46.782,20.945,46.782,46.782S167.135,192.588,141.298,192.588z"/>
<path style="fill:#D4E4AC;" d="M186.626,223.496l31.188-54.019l15.008,8.665l7.579-12.561c1.458-6.842,2.259-13.212,2.259-20.489
	s-0.801-14.004-2.259-20.847l31.282-17.883l-31.188-53.93L207.94,70.59c-10.479-9.46-22.289-16.759-37.818-21.205V13.741h-62.117
	v35.644c-8.282,4.446-25.104,11.789-35.583,21.249L41.574,52.522L10.65,106.541l31.414,18.061
	c-1.458,6.842-2.193,13.927-2.193,21.204s0.834,14.362,2.291,21.204L10.896,185.07l31.196,54.019l30.324-18.112
	c10.479,9.46,27.305,16.804,35.587,21.249v36.549h62.117v-39.341h25.756l4.714-7.843L186.626,223.496z M141.298,215.979
	c-38.756,0-70.173-31.418-70.173-70.173c0-38.756,31.417-70.173,70.173-70.173s70.173,31.417,70.173,70.173
	C211.471,184.561,180.054,215.979,141.298,215.979z"/>
<path d="M177.368,287.058H99.721v-40.107c-0.5-0.254-1.019-0.516-1.555-0.787c-7.859-3.973-18.172-9.188-26.709-15.699
	l-32.134,19.359L0.286,182.231l33.226-19.195c-0.944-5.815-1.421-11.589-1.421-17.23c0-5.85,0.441-11.615,1.313-17.206L0,109.416
	l38.608-67.581l32.809,19.348c8.545-6.526,18.88-11.754,26.751-15.734c0.535-0.271,1.053-0.533,1.553-0.786V6.494h77.647v37.203
	c11.432,3.959,21.729,9.723,31.229,17.485l34.722-19.239l38.813,67.313l-33.489,19.039c0.727,5.039,1.06,10.431,1.06,16.814
	c0,7.472-1.41,14.027-2.774,20.368l-0.376,1.755l-15.189-3.235l0.383-1.785c1.302-6.054,2.427-11.283,2.427-17.103
	c0-7.692-0.533-13.625-1.728-19.238l-1.184-5.56l29.612-16.834l-23.383-40.551L206.55,80.071l-4.116-3.716
	c-10.506-9.485-21.617-15.683-34.966-19.504l-5.628-1.611V22.023h-46.588v32.006l-4.093,2.197c-1.731,0.929-3.795,1.973-5.98,3.078
	c-8.52,4.31-20.189,10.211-27.813,17.094l-4.233,3.822L44.281,63.209L21.17,103.666l29.634,17.02l-1.178,5.534
	c-1.331,6.25-2.006,12.84-2.006,19.586c0,6.361,0.716,12.95,2.13,19.587l1.175,5.518L21.5,187.91l23.36,40.448l28.225-17.004
	l4.276,3.861c7.622,6.881,19.292,12.783,27.813,17.091c2.187,1.106,4.252,2.15,5.984,3.08l4.094,2.197v33.947h46.588v-32.094h15.529
	v47.622H177.368z"/>
<path d="M380.285,450.634H326.45v-15.529h38.306v-42.136l5.866-1.479c21.296-5.37,41.001-16.449,55.485-31.194l4.18-4.256
	l36.426,20.658l23.735-40.671l-35.569-20.629l1.602-5.78c2.947-10.64,4.442-21.157,4.442-31.26c0-10.404-1.453-20.921-4.316-31.261
	l-1.605-5.793l35.784-20.649l-23.472-40.669l-37.063,20.657l-4.148-4.224c-14.695-14.961-33.88-25.749-55.48-31.195l-5.866-1.479
	v-40.259h-47.623v40.259l-5.866,1.479c-19.741,4.979-36.395,14.891-52.41,31.195l-4.258,4.336l-34.809-20.575l-23.022,40.437
	l36.015,20.674l-1.609,5.715c-2.576,9.296-5.239,19.35-5.239,29.702h-15.529c0-10.353,2.009-19.679,4.215-28.028l-39.006-22.344
	l38.488-67.58l38.028,22.491c15.197-14.392,31.151-23.884,49.47-29.452v-43.838h78.682v43.822
	c19.987,5.951,37.983,16.078,52.617,29.608l40.215-22.412l38.882,67.369l-38.941,22.471c2.254,9.795,3.394,19.707,3.394,29.544
	c0,9.632-1.181,19.551-3.516,29.562l38.772,22.487l-39.314,67.367l-39.521-22.413c-14.628,13.516-32.613,23.631-52.589,29.578
	v45.696H380.285z"/>
<path d="M141.298,223.743c-42.975,0-77.938-34.963-77.938-77.938s34.963-77.938,77.938-77.938s77.938,34.963,77.938,77.938
	c0,2.885-0.159,5.795-0.474,8.646l-15.435-1.704c0.253-2.288,0.381-4.624,0.381-6.942c0-34.412-27.996-62.408-62.408-62.408
	S78.89,111.394,78.89,145.806s27.996,62.408,62.408,62.408c12.413,0,24.401-3.633,34.668-10.506l8.64,12.905
	C171.772,219.203,156.798,223.743,141.298,223.743z"/>
<path d="M344.05,379.684v-15.529c47.623,0,85.784-38.489,85.784-85.8s-38.497-85.59-85.807-85.59s-85.807,38.387-85.807,86.01
	h-15.529c0-55.906,45.455-101.539,101.329-101.539s101.345,45.351,101.345,101.223S399.956,379.684,344.05,379.684z"/>
<path d="M141.298,200.352c-30.077,0-54.547-24.469-54.547-54.546s24.47-54.547,54.547-54.547s54.546,24.47,54.546,54.547
	S171.375,200.352,141.298,200.352z M141.298,106.789c-21.514,0-39.018,17.504-39.018,39.018s17.504,39.017,39.018,39.017
	s39.017-17.503,39.017-39.017S162.812,106.789,141.298,106.789z"/>
<path d="M344.02,356.293c-5.837,0-11.659-0.649-17.303-1.929l3.434-15.145c4.519,1.025,9.185,1.545,13.869,1.545
	c34.412,0,62.408-27.996,62.408-62.408s-27.996-62.408-62.408-62.408s-62.408,27.996-62.408,62.408
	c0,10.093,2.332,19.72,6.931,28.616l-13.795,7.132c-5.669-10.966-8.665-23.327-8.665-35.749c0-42.975,34.963-77.938,77.938-77.938
	s77.938,34.963,77.938,77.938C421.958,321.33,386.995,356.293,344.02,356.293z"/>
<rect x="302.636" y="264.278" width="78.682" height="15.529"/>
<rect x="318.166" y="287.055" width="47.623" height="15.529"/>
<rect x="108.002" y="139.008" width="15.529" height="15.529"/>
<rect x="131.813" y="139.008" width="15.529" height="15.529"/>
<rect x="154.59" y="139.008" width="15.529" height="15.529"/>
<g>
	<path style="fill:#E2804F;" d="M275.666,294.028c0.212,0.932,0.461,1.846,0.71,2.763
		C276.128,295.875,275.879,294.959,275.666,294.028z"/>
	<path style="fill:#E2804F;" d="M277.843,301.523c0.313,0.891,0.625,1.778,0.971,2.652
		C278.468,303.302,278.156,302.413,277.843,301.523z"/>
	<path style="fill:#E2804F;" d="M281.743,310.614c-0.296-0.57-0.558-1.161-0.839-1.74c0.265,0.546,0.463,1.127,0.741,1.665
		L281.743,310.614z"/>
	<path style="fill:#E2804F;" d="M334.026,347.736c0.809,0.116,1.601,0.282,2.418,0.37
		C335.628,348.017,334.836,347.851,334.026,347.736z"/>
	<path style="fill:#E2804F;" d="M274.327,286.305c0.094,0.839,0.255,1.652,0.379,2.482
		C274.582,287.958,274.422,287.143,274.327,286.305z"/>
	<path style="fill:#E2804F;" d="M329.114,346.906c-0.269-0.059-0.528-0.143-0.796-0.205l0.116,0.09
		C328.656,346.842,328.89,346.858,329.114,346.906z"/>
</g>
<circle style="fill:#FFFFFF;" cx="219.264" cy="395.305" r="15.591"/>
<path style="fill:#D4E4AC;" d="M219.267,356.325c-21.531,0-38.985,17.454-38.985,38.985s17.454,38.985,38.985,38.985
	s38.985-17.454,38.985-38.985C258.253,373.78,240.798,356.325,219.267,356.325z M219.267,410.904
	c-8.613,0-15.594-6.982-15.594-15.594c0-8.613,6.982-15.594,15.594-15.594s15.594,6.981,15.594,15.594
	C234.862,403.922,227.88,410.904,219.267,410.904z"/>
<path style="fill:#F2BF7E;" d="M289.44,395.31c0-4.377-0.453-8.644-1.221-12.8l30.525-17.623l-23.391-40.514l-31.597,17.626
	c-6.475-5.538-14.953-9.882-23.235-12.783v-34.91h-46.588v34.91c-8.282,2.901-14.72,7.245-21.194,12.783l-30.042-17.626
	l-23.148,40.514l30.646,17.623c-0.767,4.156-1.16,8.422-1.16,12.8c0,4.378,0.483,8.644,1.251,12.8l-30.509,17.623l23.399,40.515
	l29.561-17.626c6.475,5.539,12.915,9.881,21.198,12.783v34.782h46.588v-34.782c8.282-2.902,16.76-7.244,23.235-12.783l31.063,17.626
	l23.658-40.515l-30.391-17.623C288.853,403.954,289.44,399.688,289.44,395.31z M219.267,434.296
	c-21.531,0-38.985-17.454-38.985-38.985s17.454-38.985,38.985-38.985s38.985,17.454,38.985,38.985
	C258.253,416.841,240.798,434.296,219.267,434.296z"/>
<path d="M247.768,505.504h-63.153v-39.068c-4.487-2.212-8.886-4.97-13.282-8.329l-30.904,18.922l-31.273-54.134l32.621-18.851
	c-0.374-3.039-0.557-5.928-0.557-8.735c0-2.971,0.149-5.875,0.445-8.683l-32.876-18.846l30.671-54.133l31.82,18.912
	c4.417-3.38,8.833-6.154,13.336-8.374v-37.127h63.153v36.973c5.216,2.254,11.184,5.161,16.391,8.726l34.107-18.87l31.085,53.841
	l-32.662,18.858c0.347,2.954,0.518,5.84,0.518,8.723c0,3.068-0.27,6.054-0.634,8.767l32.479,18.855l-31.525,53.838l-33.41-18.879
	c-5.196,3.551-11.146,6.449-16.349,8.697v38.916H247.768z M200.145,489.975h32.094V456.15l4.878-1.954
	c3.681-1.474,14.886-5.96,21.332-11.474l4.132-3.536l29.27,16.539l15.921-27.191l-28.347-16.456l0.992-5.378
	c0.622-3.371,1.258-7.36,1.258-11.391c0-3.684-0.357-7.41-1.092-11.391l-0.995-5.392l28.548-16.482l-15.696-27.187l-29.898,16.542
	l-4.094-3.5c-6.45-5.517-17.652-10.001-21.332-11.474l-4.878-1.954v-31.883h-32.094v31.883l-4.878,1.954
	c-6.124,2.452-12.095,6.204-18.256,11.474l-4.229,3.617l-27.625-16.419l-15.237,26.896l28.813,16.517l-0.999,5.41
	c-0.662,3.58-0.982,7.306-0.982,11.39c0,3.484,0.375,7.21,1.146,11.391l0.994,5.39l-28.519,16.481l15.537,26.895l26.807-16.412
	l4.288,3.668c6.155,5.264,12.129,9.018,18.264,11.474l4.878,1.954v33.824H200.145z"/>
<path d="M219.267,442.06c-25.778,0-46.75-20.972-46.75-46.75c0-25.778,20.972-46.75,46.75-46.75s46.75,20.972,46.75,46.75
	C266.017,421.089,245.046,442.06,219.267,442.06z M219.267,364.09c-17.215,0-31.22,14.005-31.22,31.22s14.005,31.22,31.22,31.22
	s31.22-14.005,31.22-31.22S236.483,364.09,219.267,364.09z"/>
<path d="M219.267,418.669c-12.88,0-23.359-10.479-23.359-23.359s10.479-23.359,23.359-23.359s23.359,10.479,23.359,23.359
	S232.147,418.669,219.267,418.669z M219.267,387.481c-4.317,0-7.83,3.513-7.83,7.83s3.513,7.83,7.83,7.83
	c4.317,0,7.83-3.513,7.83-7.83S223.585,387.481,219.267,387.481z"/>
</svg>