<?xml version="1.0" encoding="UTF-8"?>
<!DOCTYPE svg PUBLIC "-//W3C//DTD SVG 1.1//EN" "http://www.w3.org/Graphics/SVG/1.1/DTD/svg11.dtd">
<svg width="760pt" height="712pt" viewBox="0 0 760 712" version="1.1" xmlns="http://www.w3.org/2000/svg">
<g id="#ffffffff">
<path fill="#ffffff" opacity="1.00" d=" M 365.54 115.63 C 373.54 111.71 383.19 112.17 391.14 115.93 C 396.49 118.98 400.10 124.45 401.85 130.25 C 404.01 136.60 403.76 143.38 403.75 149.99 C 403.75 208.64 403.76 267.30 403.75 325.96 C 403.33 328.95 405.69 332.79 409.09 331.89 C 412.13 331.26 412.90 327.69 412.76 325.03 C 412.74 275.02 412.75 225.02 412.75 175.01 C 412.74 170.31 413.28 165.52 415.24 161.20 C 417.82 154.49 423.86 149.12 431.04 147.97 C 439.12 146.60 448.23 146.91 455.10 151.88 C 461.61 157.18 464.96 165.66 464.73 173.97 C 464.77 242.00 464.75 310.03 464.74 378.05 C 464.61 379.92 465.54 381.59 466.21 383.27 C 466.94 383.42 468.39 383.72 469.12 383.86 C 473.25 377.35 475.94 370.10 479.08 363.09 C 484.20 351.61 488.58 339.81 493.33 328.17 C 496.16 320.73 500.58 313.85 506.38 308.38 C 517.47 298.75 532.49 294.59 547.01 295.06 C 552.70 294.90 558.28 296.02 563.90 296.73 C 561.63 309.70 556.84 322.04 552.56 334.44 C 533.38 389.66 514.02 444.82 494.94 500.06 C 487.66 519.41 476.52 537.31 462.06 552.10 C 455.95 557.68 449.96 563.48 443.09 568.14 C 417.77 585.76 386.05 592.56 355.56 590.64 C 327.95 589.77 299.81 580.70 279.22 561.82 C 269.01 553.41 261.33 542.38 254.96 530.91 C 241.10 505.63 235.09 476.66 234.49 448.01 C 234.51 378.00 234.50 308.00 234.50 238.00 C 234.68 229.06 237.19 219.17 244.58 213.47 C 251.75 208.72 261.46 208.13 269.26 211.65 C 277.72 216.08 281.06 226.21 281.71 235.16 C 281.92 267.84 281.82 300.52 282.05 333.20 C 281.77 336.53 286.10 338.79 288.67 336.72 C 290.24 335.70 290.27 333.69 290.27 332.02 C 290.31 281.68 290.42 231.33 290.49 180.98 C 290.33 170.92 290.38 160.00 296.25 151.36 C 300.46 144.80 308.36 141.34 316.02 141.53 C 324.18 141.14 333.01 144.38 337.45 151.56 C 342.19 157.98 343.28 166.22 343.26 173.98 C 343.24 222.01 343.26 270.03 343.25 318.05 C 343.37 321.90 342.41 326.24 345.29 329.38 C 346.85 329.01 349.00 329.59 350.04 328.04 C 352.15 325.48 351.38 322.00 351.52 318.95 C 351.57 262.31 351.68 205.67 351.74 149.03 C 351.71 142.65 351.63 136.10 353.81 130.01 C 355.74 124.05 359.50 118.05 365.54 115.63 Z"/>
</g>
<g id="#ec0021ff">
<path fill="#ec0021" opacity="1.00" d=" M 253.22 32.25 C 259.11 31.48 265.06 31.81 270.98 31.75 C 342.33 31.75 413.67 31.74 485.01 31.76 C 495.65 31.83 506.30 34.93 514.98 41.15 C 520.57 45.48 525.37 50.71 530.40 55.67 C 577.72 102.99 625.05 150.32 672.37 197.64 C 680.72 205.92 689.91 214.24 693.57 225.80 C 696.29 233.20 696.60 241.19 696.50 248.99 C 696.48 322.32 696.52 395.66 696.48 468.99 C 696.41 479.64 693.19 490.27 686.95 498.93 C 682.58 504.52 677.34 509.32 672.37 514.36 C 625.70 561.03 579.03 607.70 532.36 654.36 C 526.14 660.49 520.25 667.04 513.11 672.14 C 506.45 676.27 498.92 679.20 491.06 679.80 C 485.42 680.51 479.73 680.19 474.06 680.25 C 403.04 680.26 332.02 680.24 261.00 680.26 C 251.84 680.13 242.41 678.61 234.47 673.79 C 224.45 668.10 217.09 659.00 208.87 651.12 C 161.41 603.58 113.95 556.03 66.48 508.49 C 62.92 505.04 59.56 501.38 56.53 497.47 C 52.90 491.87 50.28 485.61 49.00 479.06 C 47.94 471.08 48.31 463.02 48.25 455.00 C 48.25 385.98 48.26 316.96 48.24 247.94 C 48.27 240.60 48.22 233.04 50.85 226.07 C 53.54 217.34 59.56 210.29 65.97 204.01 C 117.78 152.13 169.59 100.25 221.37 48.34 C 229.84 39.68 240.99 33.28 253.22 32.25 M 365.54 115.63 C 359.50 118.05 355.74 124.05 353.81 130.01 C 351.63 136.10 351.71 142.65 351.74 149.03 C 351.68 205.67 351.57 262.31 351.52 318.95 C 351.38 322.00 352.15 325.48 350.04 328.04 C 349.00 329.59 346.85 329.01 345.29 329.38 C 342.41 326.24 343.37 321.90 343.25 318.05 C 343.26 270.03 343.24 222.01 343.26 173.98 C 343.28 166.22 342.19 157.98 337.45 151.56 C 333.01 144.38 324.18 141.14 316.02 141.53 C 308.36 141.34 300.46 144.80 296.25 151.36 C 290.38 160.00 290.33 170.92 290.49 180.98 C 290.42 231.33 290.31 281.68 290.27 332.02 C 290.27 333.69 290.24 335.70 288.67 336.72 C 286.10 338.79 281.77 336.53 282.05 333.20 C 281.82 300.52 281.92 267.84 281.71 235.16 C 281.06 226.21 277.72 216.08 269.26 211.65 C 261.46 208.13 251.75 208.72 244.58 213.47 C 237.19 219.17 234.68 229.06 234.50 238.00 C 234.50 308.00 234.51 378.00 234.49 448.01 C 235.09 476.66 241.10 505.63 254.96 530.91 C 261.33 542.38 269.01 553.41 279.22 561.82 C 299.81 580.70 327.95 589.77 355.56 590.64 C 386.05 592.56 417.77 585.76 443.09 568.14 C 449.96 563.48 455.95 557.68 462.06 552.10 C 476.52 537.31 487.66 519.41 494.94 500.06 C 514.02 444.82 533.38 389.66 552.56 334.44 C 556.84 322.04 561.63 309.70 563.90 296.73 C 558.28 296.02 552.70 294.90 547.01 295.06 C 532.49 294.59 517.47 298.75 506.38 308.38 C 500.58 313.85 496.16 320.73 493.33 328.17 C 488.58 339.81 484.20 351.61 479.08 363.09 C 475.94 370.10 473.25 377.35 469.12 383.86 C 468.39 383.72 466.94 383.42 466.21 383.27 C 465.54 381.59 464.61 379.92 464.74 378.05 C 464.75 310.03 464.77 242.00 464.73 173.97 C 464.96 165.66 461.61 157.18 455.10 151.88 C 448.23 146.91 439.12 146.60 431.04 147.97 C 423.86 149.12 417.82 154.49 415.24 161.20 C 413.28 165.52 412.74 170.31 412.75 175.01 C 412.75 225.02 412.74 275.02 412.76 325.03 C 412.90 327.69 412.13 331.26 409.09 331.89 C 405.69 332.79 403.33 328.95 403.75 325.96 C 403.76 267.30 403.75 208.64 403.75 149.99 C 403.76 143.38 404.01 136.60 401.85 130.25 C 400.10 124.45 396.49 118.98 391.14 115.93 C 383.19 112.17 373.54 111.71 365.54 115.63 Z"/>
</g>
</svg>