<?xml version="1.0" encoding="UTF-8" standalone="no"?>
<svg xmlns="http://www.w3.org/2000/svg" width="619.25" height="620.5" viewBox="0 0 619.25001 620.49998">
  <path fill="#fff" d="M44.44672 196.23592h525.2793v226.27417H44.44672z"/>
  <path fill="#fff" stroke="#dadbdb" stroke-width="3" d="M91.80927 528.6842 1.5 438.36854V182.1185l90.31571-90.30927 90.31574-90.30927h255l90.3093 90.31571 90.3093 90.31572v256.25003l-90.3158 90.30928-90.3157 90.30931h-255L91.80927 528.6842zm416.24968-20.6182 82.1911-82.18394v-231.2642l-82.1911-82.18395-82.191-82.18395h-231.2826l-82.16502 82.1875-82.16504 82.1875-.003 115.62147-.003 115.62148 82.18395 82.19099 82.18391 82.19111h231.2501l82.191-82.18401z"/>
  <path fill="#e00000" stroke="#cb0000" stroke-width="3.00381231" d="m111.93691 508.64201-81.766866-81.5655V193.32805l81.774016-81.55837 81.77404-81.55836h231.82548l82.40059 82.18339 82.40061 82.18339v231.26262l-82.40061 82.18339-82.40059 82.1834H193.7038l-81.76689-81.5655zm231.41527-94.19312c31.2184-6.72118 48.91766-26.18401 51.10118-56.19297 1.47603-20.2856-4.53596-37.72105-16.16952-46.89339-5.57595-4.3963-17.60454-9.90306-21.63156-9.90306-3.28534 0-3.15866-2.22929.17411-3.06362 10.02934-2.51078 21.35859-14.96117 25.48352-28.00535 3.07557-9.7258 3.39897-27.99818.65848-37.20292-2.6565-8.92257-10.24445-19.09957-18.22908-24.44895-14.38913-9.64013-31.54256-12.16924-82.99192-12.23635l-32.26957-.0421-.00085 110.31175-.00084 110.31175 42.29592-.31798c33.10917-.24889 44.31245-.75211 51.58013-2.31681zm-50.01281-64.7501v-28.23946h16.69059c18.67754 0 27.14706 1.78771 33.42249 7.05467 6.01224 5.04606 7.93749 9.9062 7.9448 20.05594.009 13.00977-3.65767 19.71157-13.54837 24.76065-7.03182 3.58966-8.16287 3.77199-25.93101 4.18051l-18.5785.42714v-28.23945zm0-88.86115v-24.62302l16.60474.44241c18.38579.48988 24.15596 2.26952 29.05574 8.96138 3.94273 5.3848 3.73341 22.12742-.35871 28.6926-4.98478 7.9973-10.80593 10.11558-29.32363 10.67066l-15.97814.47897v-24.623zM100.82955 395.52133c2.58574-11.51554 5.24884-23.04671 5.91801-25.62483l1.21669-4.68746h57.34427l2.73593 12.18741c1.50475 6.70309 4.136 18.23426 5.84721 25.62483l3.11128 13.43741h23.21304c18.02033 0 23.09338-.34953 22.67805-1.56249-.29425-.85937-13.71779-50.07778-29.8301-109.37426l-29.29508-107.81176h-52.80312l-3.41589 12.81241c-4.81081 18.04457-54.724043 201.09264-55.557814 203.74861-.636409 2.02732.954378 2.18749 21.724745 2.18749h22.411452l4.701327-20.93736zm16.30225-72.49951c1.79347-5.93741 8.91849-37.52376 13.74577-60.93708 3.2401-15.71519 5.72557-25.24652 6.19319-23.74984.42959 1.37499 3.04842 13.18741 5.81961 26.24982 2.7712 13.06241 6.94926 32.04666 9.2846 42.18721l4.24606 18.43738h-19.97499c-18.44005 0-19.92421-.16809-19.31424-2.18749zm350.40062 56.56212v-36.87475h17.43438c21.16249 0 33.79869-2.21526 46.23265-8.10506 17.52232-8.30009 31.23979-26.21895 35.42089-46.26957 2.24938-10.78699 1.95023-33.29929-.57304-43.12471-6.38466-24.86122-22.81682-40.23796-48.64785-45.52326-7.67853-1.57112-18.2794-1.97641-51.69398-1.97641h-42.03461v218.74851h43.86156v-36.87475zm0-109.37426V237.7099h16.69057c19.8198 0 27.70346 1.86445 33.86321 8.00848 5.56607 5.55187 7.55182 13.10998 6.84067 26.03665-1.28898 23.42992-11.48804 30.95443-41.95707 30.95443h-15.43738v-32.49978z"/>
</svg>