<?xml version="1.0" encoding="UTF-8"?>
<!-- Converted from: https://adblockultimate.net/theme/static/dist/assets/img/logo.png -->
<!-- Generator: Adobe Illustrator 19.2.1, SVG Export Plug-In . SVG Version: 6.00 Build 0)  -->
<svg version="1.1" id="Layer_1" xmlns="http://www.w3.org/2000/svg" xmlns:xlink="http://www.w3.org/1999/xlink" x="0px" y="0px" viewBox="0 0 512 512" style="enable-background:new 0 0 512 512;" xml:space="preserve">
<style type="text/css">
	.st0{fill:#F31312;}
	.st1{fill:#DB100E;}
	.st2{fill:#FFFFFF;}
</style>
<g id="_x23_f31312ff">
	<path class="st0" d="M256,0L256,0l0.9,0.6c0.2,38.8,0,77.7,0.1,116.5c-15.6-0.1-31.1,5-43.6,14.3c-18.7,13.6-30.2,36.4-29.9,59.6   c0,12,0,24,0,36c-7.8,0-15.6,0-23.5,0c-0.1,48.7,0,97.3,0,146c32.3,0,64.7,0,97,0c0,46.3-0.2,92.5,0.1,138.8l-1,0.3H256   c-45.6-13.1-88.4-36.4-123.3-68.6c-8.4-7-15.5-15.2-23.1-22.9c-5.6-6.5-10.9-13.2-16.3-19.8c-4.9-6.8-9.6-13.7-14.3-20.6   c-4.3-7.1-8.4-14.2-12.5-21.4c-3.6-7.2-7-14.5-10.5-21.8C41.6,304,33.1,268.7,30.8,233c-0.9-12.3-0.7-24.6-0.7-36.9   c0-43.9,0-87.9,0-131.8c29.5-0.3,59.1-3.2,88-9.4C166.6,44.4,213.9,26.6,256,0z"/>
	<path class="st0" d="M225.8,153.8c8.6-7.4,19.8-11.5,31.2-11.5c0.1,28.2,0,56.4,0,84.6c-16.1,0.1-32.2,0.1-48.2,0   c0.1-12.6-0.1-25.3,0.1-37.9C209.2,175.6,215.5,162.5,225.8,153.8z"/>
	<path class="st0" d="M241.1,285c0.4-8.2,7.9-14.8,15.9-14.9c0.1,19.6-0.2,39.3,0.2,58.9c2.3,0.3,4.7,0.5,7,0.8   c-4.9-0.1-9.8-0.1-14.6,0c0-9.8-0.1-19.5,0.1-29.3C244.1,297.5,240.4,291.3,241.1,285z"/>
</g>
<g id="_x23_db100eff">
	<path class="st1" d="M256,0c36.8,23,78.4,40,120.3,50.8c34.5,8.9,70,13.2,105.6,13.5c0,40.6,0,81.1,0,121.7c0,23.3,0.4,46.7-3,69.8   c-5.6,41-19.7,80.8-41.1,116.2c-5.2,9.5-11.8,18.1-17.9,27.1c-5.4,6.9-11,13.6-16.6,20.3c-6,6.3-12,12.7-18.2,18.8   c-7.8,6.8-15.3,14-23.6,20.3c-31,24.2-67.7,42.5-105.4,53.5c-0.3-46.3,0.9-92.8,0.9-139c32.5,0,65.1,0,97.6,0   c0-48.6-0.1-97.3,0-145.9c-8-0.2-16.1-0.1-24.1-0.1c-0.1-12.6,0.1-25.2-0.1-37.9c-0.3-18.5-7.8-36.7-20.8-49.8   c-13.6-14.1-33-22.4-52.6-22.2C256.9,78.3,256.2,38.8,256,0z"/>
	<path class="st1" d="M257,142.3c13.5-0.1,26.8,5.8,35.8,15.9c7.9,8.6,12.3,20.1,12.4,31.8c0.1,12.3,0,24.6,0,36.9   c-16.1,0.2-32.1,0-48.2,0C256.9,198.8,257.1,170.5,257,142.3z"/>
	<path class="st1" d="M257,270.1c4.6,0.2,9.2,2.1,12.2,5.7c4.8,5.4,5.2,14.3,0.7,20c-1.5,2.1-3.7,3.5-5.8,5c0.3,9.6,0,19.3,0.1,29   c-2.4-0.2-4.7-0.5-7-0.8C256.8,309.4,257.1,289.8,257,270.1z"/>
</g>
<g id="_x23_ffffffff">
	<path class="st2" d="M213.4,131.3c12.5-9.3,28-14.4,43.6-14.3c19.6-0.2,39.1,8.1,52.6,22.2c13,13.1,20.5,31.4,20.8,49.8   c0.1,12.6,0,25.2,0.1,37.9c8-0.1,16.1-0.2,24.1,0.1c-0.1,48.6-0.1,97.2,0,145.9c-32.5,0-65.1,0-97.6,0c-32.3,0-64.7,0-97,0   c0-48.7-0.1-97.3,0-146c7.8,0,15.6,0,23.5,0c0-12,0-24,0-36C183.2,167.8,194.7,145,213.4,131.3 M225.8,153.8   c-10.3,8.6-16.6,21.7-17,35.2c-0.2,12.6,0,25.3-0.1,37.9c16.1,0.1,32.2,0.1,48.2,0c16.1-0.1,32.1,0.2,48.2,0c0-12.3,0-24.6,0-36.9   c-0.1-11.6-4.6-23.2-12.4-31.8c-9-10.1-22.3-16-35.8-15.9C245.7,142.4,234.4,146.4,225.8,153.8 M241.1,285   c-0.7,6.3,3,12.5,8.5,15.5c-0.1,9.8,0,19.5-0.1,29.3c4.9,0,9.7-0.1,14.6,0c-0.1-9.7,0.2-19.3-0.1-29c2.1-1.5,4.3-2.9,5.8-5   c4.5-5.7,4.2-14.6-0.7-20c-3-3.6-7.6-5.5-12.2-5.7C248.9,270.2,241.4,276.8,241.1,285z"/>
</g>
</svg>