<svg id="Layer_1" data-name="Layer 1" xmlns="http://www.w3.org/2000/svg" xmlns:xlink="http://www.w3.org/1999/xlink" viewBox="0 0 346.22 509.28"><defs><style>.cls-1{fill:url(#linear-gradient);}.cls-2{fill:#980200;}.cls-3{fill:red;}</style><linearGradient id="linear-gradient" x1="82.93" y1="80.68" x2="345.79" y2="80.68" gradientUnits="userSpaceOnUse"><stop offset="0" stop-color="#2cb72e"/><stop offset="1" stop-color="#3afe3c"/></linearGradient></defs><title>Pi-hole_Logo [Converted]</title><path class="cls-1" d="M82.93,2.11c28.5,0.21,57.63,4.95,83,18.55a125.53,125.53,0,0,1,45.79,41.11c13.92,20.56,21.84,44.7,25.42,69.14,1.34,7,1.42,14.22,2.4,21.3,3.71-19.22,9.2-38.6,20.26-55A90.27,90.27,0,0,1,293.15,65.6a93.33,93.33,0,0,1,52.46-10.67c0.91,16.17-1.56,32.76-8.88,47.33-10,20.71-28.52,36.46-49.37,45.64-15.07,6.78-31.46,10.31-47.91,11.34C228.56,139.3,212,123.41,196.61,107c-8.56-8.47-17-17-25.85-25.24-15.63-14.2-30.66-29.11-47-42.5,4.33,4.85,9.49,8.87,14.18,13.36,14.86,14.14,29.48,28.59,42.8,44.2,9.87,11,19.06,22.73,26.51,35.53,4.49,8.06,8.64,16.86,8.48,26.3-30.29-3.32-59.71-15.92-82.1-36.72C111.12,101.4,96.2,73.44,89.12,44,85.48,30.33,84,16.2,82.93,2.11Z" transform="translate(-72.31 -2.11)"/><path class="cls-2" d="M281,174c8.26,3.63,15.23,9.59,21.61,15.86l75,75c7.24,7.4,14.85,14.47,21.79,22.17,20.48,23.09,25.33,59.1,10.64,86.4-3.92,4.5-7.06,9.66-11.47,13.72-11.9,11.52-28.43,17.49-44.81,18.2-16,.29-32.43-4.31-44.82-14.72-13.73-11.18-21.5-28.26-23.83-45.55-1.41-8.51-.42-17.25,1.84-25.52,4.51-19,14.67-36.05,20.66-54.59a76.22,76.22,0,0,0,4.84-26.2,71.53,71.53,0,0,0-9.32-41.38C297.83,187.87,289.8,180.34,281,174Z" transform="translate(-72.31 -2.11)"/><path class="cls-2" d="M90,292.51c10.81-12.56,27.14-19.22,43.39-20.72,19-1.92,38.92,4.2,52.52,17.81C199,302.46,205.52,320.89,206.4,339c-0.18,18-7.66,34.88-14.7,51.14-7.51,17.38-15.16,35.82-13.21,55.18,0.7,17.58,7.59,35,20.13,47.52,4.68,4.93,10.45,8.57,16.18,12.13C199.14,499.28,188,486.42,176.49,475c-27.76-27.88-55.77-55.52-83.37-83.56-17-18-24.12-44.28-19.37-68.48l0.27-.24L74.9,322C77.88,311.27,82.51,300.86,90,292.51Z" transform="translate(-72.31 -2.11)"/><path class="cls-3" d="M206.87,175.49c22.33-12.84,51.5-14.12,74.17-1.46,8.76,6.31,16.79,13.84,22.08,23.35a71.53,71.53,0,0,1,9.32,41.38c-1.25,14.43-7,28.58-17.1,39.09-13,13.84-32.14,20.67-50.84,21.42-17-.37-33.05-7.1-48.44-13.8-14.61-6.21-29.47-12.93-45.5-14.17a91.34,91.34,0,0,0-17.18.49C117.13,273.29,100.8,280,90,292.51,82.51,300.86,77.88,311.27,74.9,322l-0.88.75A81.77,81.77,0,0,1,97.4,281L189,189.45A83.31,83.31,0,0,1,206.87,175.49Z" transform="translate(-72.31 -2.11)"/><path class="cls-3" d="M398.56,387.14c4.41-4.06,7.55-9.22,11.47-13.72-6.51,14.31-18.93,24.41-29.62,35.47q-36.5,36.48-73,73c-5.22,5.21-10.35,10.59-16.4,14.85C269.4,512.4,239.21,516.1,214.8,505c-5.73-3.56-11.5-7.2-16.18-12.13-12.54-12.49-19.43-29.94-20.13-47.52-0.47-17.77,6.13-35.88,19-48.32,12.44-12.24,29.8-18.39,47-19.64,9.56-.5,18.88,2.07,28,4.74,18.95,6.33,36.5,16.45,56,21.26a86,86,0,0,0,25.34,2C370.13,404.63,386.66,398.66,398.56,387.14Z" transform="translate(-72.31 -2.11)"/><path d="M326.84,149.73a11.54,11.54,0,0,1,5.53,1.45,10.34,10.34,0,0,1,4.21,4.16,11.3,11.3,0,0,1,0,11.24,10.46,10.46,0,0,1-4.16,4.17,11.31,11.31,0,0,1-11.2,0,10.51,10.51,0,0,1-4.17-4.17,11.26,11.26,0,0,1,0-11.24,10.38,10.38,0,0,1,4.21-4.16A11.53,11.53,0,0,1,326.84,149.73Zm0,1.86a9.58,9.58,0,0,0-4.62,1.22,8.72,8.72,0,0,0-3.51,3.47,9.35,9.35,0,0,0,0,9.37,8.83,8.83,0,0,0,3.48,3.48,9.37,9.37,0,0,0,9.34,0,8.78,8.78,0,0,0,3.47-3.48,9.4,9.4,0,0,0,0-9.37,8.66,8.66,0,0,0-3.51-3.47A9.59,9.59,0,0,0,326.84,151.59Zm-4.94,15.61V155.1h4.16a10.18,10.18,0,0,1,3.09.34,3,3,0,0,1,1.52,1.17,3.1,3.1,0,0,1,.57,1.77,3.23,3.23,0,0,1-.95,2.31,3.74,3.74,0,0,1-2.51,1.1,3.33,3.33,0,0,1,1,.64,13.86,13.86,0,0,1,1.79,2.4l1.48,2.37h-2.39l-1.07-1.91a9.76,9.76,0,0,0-2-2.82,2.51,2.51,0,0,0-1.57-.42h-1.15v5.15h-2Zm2-6.82h2.37a3.82,3.82,0,0,0,2.32-.51,1.74,1.74,0,0,0,.32-2.3,1.78,1.78,0,0,0-.83-0.63,6.14,6.14,0,0,0-2-.21h-2.22v3.65Z" transform="translate(-72.31 -2.11)"/></svg>